<svg width="459" height="459" viewBox="0 0 459 459" fill="none" xmlns="http://www.w3.org/2000/svg">
<path d="M229.5 459C102.643 459 0 356.205 0 229.5C0 102.643 102.795 0 229.5 0C356.357 0 459 102.795 459 229.5C459.152 356.357 356.357 459 229.5 459Z" fill="#F7C0B5"/>
<mask id="mask0_8_6616" style="mask-type:alpha" maskUnits="userSpaceOnUse" x="0" y="0" width="459" height="459">
<path d="M229.5 459C102.643 459 0 356.205 0 229.5C0 102.643 102.795 0 229.5 0C356.357 0 459 102.795 459 229.5C459.152 356.357 356.357 459 229.5 459Z" fill="#F7C0B5"/>
</mask>
<g mask="url(#mask0_8_6616)">
<path d="M357.407 422.751C356.336 423.516 355.112 424.281 354.041 425.046C352.817 425.811 351.746 426.576 350.522 427.188C349.451 427.8 348.533 428.412 347.462 429.024C347.309 429.177 347.156 429.177 347.003 429.33C343.484 431.472 339.812 433.461 336.14 435.297C335.069 435.909 333.845 436.521 332.774 436.98C332.774 436.98 332.621 437.133 332.468 437.133C331.244 437.745 330.02 438.357 328.796 438.969C326.348 440.193 323.747 441.264 321.299 442.335C320.075 442.947 318.698 443.406 317.474 443.865C316.25 444.324 314.873 444.936 313.649 445.395C312.425 445.854 311.048 446.466 309.824 446.925C309.824 446.925 309.824 446.925 309.671 446.925C308.447 447.384 307.07 447.843 305.846 448.302C303.092 449.22 300.185 450.138 297.431 451.056C296.513 451.362 295.442 451.668 294.524 451.974C291.617 452.892 288.71 453.657 285.803 454.269C284.732 454.575 283.661 454.728 282.437 455.034C279.683 455.646 276.776 456.258 274.022 456.87C273.41 457.023 272.951 457.023 272.339 457.176C271.421 457.329 270.35 457.482 269.432 457.635C268.055 457.788 266.831 458.094 265.454 458.247C264.842 458.4 264.23 458.4 263.618 458.553C262.853 458.706 261.935 458.859 261.017 458.859C258.569 459.165 255.968 459.471 253.52 459.777C252.755 459.93 251.837 459.93 251.072 460.083H250.919C249.848 460.236 248.777 460.236 247.706 460.389C246.635 460.542 245.564 460.542 244.493 460.542C243.881 460.542 243.116 460.695 242.504 460.695C241.28 460.695 240.209 460.848 239.138 460.848C237.608 460.848 236.231 461.001 234.701 461.001C233.171 461.001 231.794 461.001 230.264 461.001C229.193 461.001 228.122 461.001 227.051 461.001C162.638 460.083 104.499 432.696 63.1885 389.244C63.1885 389.244 63.1885 389.09 63.0355 389.09C67.7785 379.757 85.3735 362.927 103.734 349.004C126.99 331.409 159.884 320.547 159.884 320.547C159.884 320.547 181.457 317.027 261.476 333.704C322.523 346.556 348.533 398.729 357.407 422.751Z" fill="#C99589"/>
<path d="M278.459 376.085C275.246 391.844 254.438 401.178 219.401 387.102C176.408 369.66 159.884 320.547 159.884 320.547C157.589 285.357 152.234 255.215 152.234 255.215C201.959 250.931 260.711 309.072 260.711 309.072L267.443 337.835C268.055 340.283 269.279 342.425 271.115 343.955C274.328 349.463 280.601 365.987 278.459 376.085Z" fill="#C99589"/>
<path d="M271.115 344.109C241.892 342.579 220.319 338.295 197.216 296.832C216.8 314.121 239.903 320.7 264.23 323.76L267.443 337.836C268.055 340.437 269.279 342.579 271.115 344.109Z" fill="#A56663"/>
<path d="M331.55 159.743C334.304 172.595 335.681 182.999 328.184 217.271C320.687 251.543 335.069 285.815 298.961 317.18C274.634 338.294 232.1 342.272 198.134 319.169C186.659 311.366 176.102 300.503 167.534 286.274C160.802 275.105 152.999 264.548 144.278 254.909C132.191 241.751 117.656 215.282 124.847 168.464C136.475 92.2704 211.904 83.5494 256.427 91.9644C300.95 100.379 324.053 125.777 331.55 159.743Z" fill="#C99589"/>
<path d="M185.129 219.566C185.129 219.566 180.386 196.616 158.048 199.37C138.77 201.818 132.038 248.024 175.796 260.876" fill="#C99589"/>
<path d="M174.419 239.916C174.419 239.916 168.911 236.396 169.523 230.276C170.441 223.085 169.523 218.648 166.157 217.271C157.742 213.752 156.059 223.544 156.365 224.768" stroke="#423232" stroke-width="5.08" stroke-miterlimit="10" stroke-linecap="round" stroke-linejoin="round"/>
<path d="M291.158 254.756C291.158 254.756 296.972 255.062 302.48 248.483C305.54 244.811 308.141 240.221 306.458 238.844C304.775 237.314 277.082 241.598 275.246 245.27C273.41 248.942 284.12 254.756 291.158 254.756Z" fill="#A56663"/>
<path d="M295.748 203.348C295.748 203.348 296.054 217.883 305.387 234.101C309.518 241.292 303.245 253.073 289.628 255.062" stroke="#423232" stroke-width="5.08" stroke-miterlimit="10" stroke-linecap="round" stroke-linejoin="round"/>
<path d="M133.395 314.721C133.395 314.721 155.733 305.847 159.864 305.541L160.17 309.06C160.17 309.06 142.422 316.71 141.351 317.934C140.433 319.005 133.395 314.721 133.395 314.721Z" fill="#7E5D6D"/>
<path d="M408.948 513.162H22.1642C22.1642 513.162 24.4592 442.17 47.7152 391.527C65.3102 353.277 107.538 328.032 138.291 317.016C147.012 313.956 153.744 310.59 160.017 308.907C160.017 309.672 160.476 315.333 160.476 315.945C160.476 315.945 184.65 339.66 239.118 342.567C264.363 343.944 266.811 328.185 266.811 328.185C269.718 327.573 272.472 326.808 275.226 325.89C276.144 325.584 282.57 322.983 283.335 322.677C303.072 327.879 327.246 342.567 362.283 371.943C401.91 405.45 408.948 513.162 408.948 513.162Z" fill="#423232"/>
<mask id="mask1_8_6616" style="mask-type:alpha" maskUnits="userSpaceOnUse" x="22" y="308" width="387" height="206">
<path d="M408.948 513.162H22.1636C22.1636 513.162 24.4586 442.17 47.7146 391.527C65.3096 353.277 107.538 328.032 138.291 317.016C147.012 313.956 153.744 310.59 160.017 308.907C160.017 309.672 160.476 315.333 160.476 315.945C160.476 315.945 184.65 339.66 239.118 342.567C264.363 343.944 266.811 328.185 266.811 328.185C269.718 327.573 272.472 326.808 275.226 325.89C276.144 325.584 282.57 322.983 283.335 322.677C303.072 327.879 327.246 342.567 362.283 371.943C401.91 405.45 408.948 513.162 408.948 513.162Z" fill="#423232"/>
</mask>
<g mask="url(#mask1_8_6616)">
<path d="M160.17 334.458C176.235 357.102 219.075 391.68 253.347 398.259C269.718 401.319 293.127 345.168 271.86 322.524C253.653 303.093 176.235 298.044 163.842 306.612C148.695 316.71 156.192 328.95 160.17 334.458Z" stroke="#FFFF8D" stroke-width="8.46667" stroke-miterlimit="10"/>
</g>
<path d="M334.437 357.561C344.324 357.561 352.338 349.547 352.338 339.66C352.338 329.774 344.324 321.759 334.437 321.759C324.551 321.759 316.536 329.774 316.536 339.66C316.536 349.547 324.551 357.561 334.437 357.561Z" fill="#FFFF8D"/>
<path d="M97.8992 513.162L91.0142 456.552" stroke="#544D4D" stroke-width="5.08" stroke-miterlimit="10" stroke-linecap="round" stroke-linejoin="round"/>
<path d="M365.037 437.121C365.037 437.121 360.447 448.29 361.824 459.459C363.201 470.628 367.179 486.999 361.518 513.162" stroke="#544D4D" stroke-width="5.08" stroke-miterlimit="10" stroke-linecap="round" stroke-linejoin="round"/>
<path d="M133.395 314.721C136.302 313.803 141.351 314.721 142.881 317.322C148.848 327.114 163.23 355.725 169.197 412.488C173.94 456.858 166.749 536.724 166.749 536.724L18.1862 529.686C18.1862 529.686 22.6232 454.257 35.6282 403.614C48.3272 354.501 81.6812 332.469 133.395 314.721Z" fill="white"/>
<path d="M287.16 324.054C287.16 324.054 334.437 412.947 320.667 531.675H422.718C422.718 531.675 422.259 437.427 399.309 386.172C376.359 335.07 296.034 320.076 296.034 320.076C296.034 320.076 290.985 322.524 287.16 324.054Z" fill="white"/>
<path d="M287.16 324.054L283.488 322.983C283.488 322.983 288.843 320.382 291.138 318.852L292.515 318.087C292.515 318.087 299.859 321.453 302.46 322.677C305.061 323.901 293.433 329.562 293.433 329.562C293.433 329.562 287.619 324.054 287.16 324.054Z" fill="#7E5D6D"/>
<path d="M120.696 367.2C120.696 367.2 99.5822 382.041 101.571 397.8C103.56 413.559 168.585 512.244 168.585 512.244C168.585 512.244 176.235 458.694 167.514 398.106C167.514 398.106 161.241 389.691 149.766 381.276C142.116 375.921 132.324 370.26 120.696 367.2Z" fill="#AD7E5A"/>
<path d="M367.638 397.8C368.25 388.008 345.606 372.096 345.606 372.096C336.579 374.697 330.153 378.828 325.563 383.265C315.312 392.904 313.935 403.767 313.935 403.767L314.547 406.521C325.41 453.798 322.197 515.304 322.197 515.304C322.197 515.304 367.026 407.592 367.638 397.8Z" fill="#AD7E5A"/>
<path d="M167.361 398.106C167.361 398.106 156.651 386.784 143.799 378.828C115.341 361.233 73.5722 353.124 73.1132 339.507C72.8072 324.207 123.603 292.23 157.263 281.367C157.263 281.52 157.263 281.673 157.263 281.826C157.263 281.979 157.263 282.132 157.263 282.438C157.263 282.744 157.263 283.05 157.416 283.356C157.416 283.815 157.569 284.274 157.569 284.733C157.569 285.039 157.569 285.192 157.722 285.498C158.793 294.678 159.711 304.929 160.476 315.792V315.945C160.476 315.945 153.438 318.24 158.487 353.277C159.864 361.845 165.066 376.839 167.361 398.106Z" fill="#AD7E5A"/>
<path d="M313.935 403.002C313.935 403.002 303.684 363.222 298.635 350.523C293.586 337.977 284.1 323.748 283.641 322.983C289.608 320.229 294.963 316.71 299.706 312.579C304.449 308.448 308.274 304.317 311.487 300.186C328.623 309.213 377.736 337.671 380.184 351.9C382.938 367.353 323.421 366.435 313.935 403.002Z" fill="#AD7E5A"/>
<path d="M258.702 425.34C268.589 425.34 276.603 417.326 276.603 407.439C276.603 397.553 268.589 389.538 258.702 389.538C248.816 389.538 240.801 397.553 240.801 407.439C240.801 417.326 248.816 425.34 258.702 425.34Z" fill="#FFFF8D"/>
<path d="M258.702 416.619C263.772 416.619 267.882 412.509 267.882 407.439C267.882 402.369 263.772 398.259 258.702 398.259C253.632 398.259 249.522 402.369 249.522 407.439C249.522 412.509 253.632 416.619 258.702 416.619Z" fill="#FFBE71"/>
<path d="M345.606 372.096C336.579 374.697 330.153 378.828 325.563 383.265C315.312 392.904 313.935 403.767 313.935 403.767" stroke="#894B33" stroke-width="5.08" stroke-miterlimit="10" stroke-linecap="round" stroke-linejoin="round"/>
<path d="M167.361 398.106C167.361 398.106 161.088 389.691 149.613 381.276C142.116 375.768 132.324 370.26 120.543 367.047" stroke="#894B33" stroke-width="5.08" stroke-miterlimit="10" stroke-linecap="round" stroke-linejoin="round"/>
<path d="M247.052 208.403C247.052 208.556 247.052 208.709 247.052 208.709L246.899 212.993C246.746 216.665 243.686 219.419 240.014 219.266C236.342 219.113 233.588 215.9 233.894 212.381L234.047 208.097C234.047 207.332 234.353 206.414 234.659 205.802L246.899 206.414C246.899 207.026 247.052 207.638 247.052 208.403Z" fill="#423232"/>
<path d="M311.005 211.769L310.852 215.747C310.699 219.113 307.792 221.714 304.426 221.561C301.06 221.408 298.459 218.501 298.612 215.135L298.765 211.157C298.765 210.392 298.918 209.627 299.224 209.015L310.699 209.474C311.005 210.239 311.005 211.004 311.005 211.769Z" fill="#423232"/>
<path d="M262.351 187.442C265.717 187.901 268.318 184.382 267.094 181.016C266.482 179.18 265.411 177.497 263.728 176.426C258.526 173.213 239.095 172.907 228.844 180.251C219.817 186.983 247.051 185.3 262.351 187.442Z" fill="#423232"/>
<path d="M304.732 189.125C301.978 189.125 300.295 185.606 301.672 182.699C302.437 181.169 303.508 179.792 305.038 179.027C309.781 176.732 322.48 178.109 328.141 185.912C333.19 192.797 317.431 188.972 304.732 189.125Z" fill="#423232"/>
<path d="M256.996 206.72L246.745 206.261L234.505 205.802L231.751 205.649" stroke="#423232" stroke-width="5.08" stroke-miterlimit="10" stroke-linecap="round" stroke-linejoin="round"/>
<path d="M317.431 209.78L310.699 209.474L299.224 209.015H298.765" stroke="#423232" stroke-width="5.08" stroke-miterlimit="10" stroke-linecap="round" stroke-linejoin="round"/>
<path d="M286.707 273.543C286.876 276.252 284.844 280.993 281.119 284.38C261.984 272.696 253.348 278.792 253.348 278.792C246.575 268.463 248.099 254.408 264.524 265.076C276.039 272.357 282.982 273.543 286.707 273.543Z" fill="#423232"/>
<path d="M281.119 284.38C277.055 287.936 270.959 290.138 262.662 286.751C258.767 285.227 255.719 282.179 253.349 278.792C253.349 278.792 261.985 272.696 281.119 284.38Z" fill="#FE9DAB"/>
<path d="M289.925 272.865C289.925 272.865 282.813 276.76 264.525 265.076C242.681 251.021 247.083 280.485 262.493 286.751C278.579 293.355 286.877 278.961 286.707 273.543" stroke="#423232" stroke-width="5.08" stroke-miterlimit="10" stroke-linecap="round" stroke-linejoin="round"/>
<path d="M253.349 278.792C253.349 278.792 261.985 272.696 281.119 284.38" stroke="#423232" stroke-width="5.08" stroke-miterlimit="10" stroke-linecap="round" stroke-linejoin="round"/>
<path d="M371.59 330.158C363.022 311.186 356.443 313.787 362.41 296.651C368.377 279.668 360.727 267.581 344.968 251.516C329.974 236.216 328.444 219.539 328.903 217.091C327.526 223.517 326.914 230.096 326.608 236.522C326.149 245.09 326.302 253.505 325.69 261.92C324.466 280.739 320.029 299.252 299.833 316.694C290.959 324.344 279.637 329.852 267.091 332.453C263.725 342.704 268.774 350.048 279.79 351.272C290.806 352.496 295.396 369.02 320.335 376.823C357.667 388.91 380.158 349.13 371.59 330.158Z" fill="#423232"/>
<path d="M301.822 145.028C305.035 146.711 307.789 145.181 309.472 141.815C327.22 139.061 331.351 174.557 331.963 176.699C332.575 178.994 332.881 185.42 331.657 203.015C330.892 212.807 387.808 143.345 335.788 113.969C339.613 108.308 336.859 80.1564 304.882 73.2714C293.407 70.8234 278.413 81.5334 259.594 77.4024C186.001 61.0314 109.654 76.6374 115.621 173.792C116.998 195.059 118.375 218.009 82.2672 233.309C40.3452 251.057 42.4871 297.416 72.0161 306.902C84.2561 310.88 43.8641 338.42 67.4261 362.9C79.6661 375.752 101.545 349.742 123.73 363.818C157.237 385.085 173.914 375.446 180.493 367.031C193.957 349.895 177.28 315.47 177.28 315.47C177.28 315.47 183.859 304.913 186.001 299.252C196.405 271.406 171.619 258.86 171.619 258.86C133.369 244.172 140.254 201.485 158.92 199.037C178.504 196.589 184.624 214.031 185.695 218.315C185.695 218.315 202.984 242.183 236.338 187.715C269.386 133.247 287.44 137.225 301.822 145.028Z" fill="#423232"/>
<path d="M165.079 249.084V275.094" stroke="#FFDE55" stroke-width="5.08" stroke-miterlimit="10" stroke-linecap="round" stroke-linejoin="round"/>
<path d="M185.734 309.978C181.603 314.109 175.942 316.71 169.516 316.71C157.123 316.71 146.872 306.612 146.872 294.066C146.872 281.673 156.97 271.422 169.516 271.422C175.789 271.422 181.603 274.023 185.734 278.154C182.98 276.624 179.92 275.706 176.554 275.706C166.456 275.706 158.194 283.968 158.194 294.066C158.194 304.164 166.456 312.426 176.554 312.426C179.92 312.579 182.98 311.661 185.734 309.978Z" fill="#FFDE55"/>
<path d="M165.079 303.246C170.065 303.246 174.106 299.204 174.106 294.219C174.106 289.234 170.065 285.192 165.079 285.192C160.094 285.192 156.052 289.234 156.052 294.219C156.052 299.204 160.094 303.246 165.079 303.246Z" fill="#FF6B57"/>
<path d="M339.652 278.46C336.898 276.93 333.838 276.012 330.472 276.012C328.024 276.012 325.882 276.471 323.74 277.389C324.046 275.553 324.505 273.717 324.658 271.881C330.625 272.034 335.827 274.482 339.652 278.46Z" fill="#FFDE55"/>
<path d="M339.805 309.978C335.674 314.109 330.013 316.71 323.587 316.71C317.161 316.71 311.194 313.956 307.063 309.519C309.511 306.765 311.653 304.011 313.642 301.257C316.396 307.836 322.975 312.273 330.472 312.273C333.838 312.579 337.051 311.661 339.805 309.978Z" fill="#FFDE55"/>
<path d="M328.177 294.219C328.177 299.268 324.199 303.246 319.15 303.246C317.161 303.246 315.325 302.634 313.795 301.41C317.314 296.208 319.915 290.853 321.598 285.651C325.27 286.569 328.177 290.088 328.177 294.219Z" fill="#FF6B57"/>
</g>
</svg>
