<?xml version="1.0" encoding="UTF-8"?>
<svg version="1.1" xmlns="http://www.w3.org/2000/svg" width="300" height="300">
<path d="M0 0 C1.24132187 0.00222061 2.48264374 0.00444122 3.76158142 0.00672913 C4.44447739 0.0065831 5.12737335 0.00643707 5.83096313 0.00628662 C8.09815092 0.00698575 10.36525752 0.01477811 12.63243103 0.02259827 C14.20041865 0.02446245 15.76840685 0.02588635 17.33639526 0.02688599 C21.47103981 0.03071117 25.60564944 0.04054146 29.74028015 0.05158997 C33.95627876 0.06180407 38.172283 0.0663836 42.38829041 0.07142639 C50.66630125 0.08216373 58.94428368 0.09924015 67.22227478 0.12025452 C67.58466248 0.76462463 67.94705017 1.40899475 68.32041931 2.07289124 C69.99458841 5.0478306 71.67091972 8.02154641 73.34727478 10.99525452 C73.91704041 12.00845764 74.48680603 13.02166077 75.07383728 14.06556702 C78.69177047 20.47917586 82.40739946 26.82207023 86.22227478 33.12025452 C89.58917622 38.79845101 92.90746612 44.4936032 96.03477478 50.30775452 C98.99573903 55.78868833 102.15862295 61.13940929 105.33213806 66.49867249 C108.63932347 72.09649548 111.85153286 77.74197313 115.01817322 83.42030334 C117.92426905 88.62346818 120.93793901 93.75358229 124.00743103 98.86244202 C125.22227478 101.12025452 125.22227478 101.12025452 125.22227478 103.12025452 C125.88227478 103.12025452 126.54227478 103.12025452 127.22227478 103.12025452 C127.48782166 103.66294983 127.75336853 104.20564514 128.02696228 104.76478577 C128.38016541 105.48021545 128.73336853 106.19564514 129.09727478 106.93275452 C129.61934509 107.99429749 129.61934509 107.99429749 130.15196228 109.07728577 C131.28792338 111.3327187 131.28792338 111.3327187 133.22227478 114.12025452 C133.79491153 119.07628926 132.70876631 121.59470315 129.97227478 125.68275452 C129.234268 126.8184235 128.50016714 127.95663647 127.76914978 129.09681702 C127.36373962 129.72749084 126.95832947 130.35816467 126.54063416 131.00794983 C123.9756687 135.11759448 121.61153254 139.34440337 119.22227478 143.55775452 C118.70391052 144.46888 118.18554626 145.38000549 117.651474 146.31874084 C116.17330923 148.91824786 114.69750491 151.51908128 113.22227478 154.12025452 C108.46454705 162.49746879 103.642976 170.83090953 98.73936462 179.12342834 C96.12449448 183.55437954 93.57766338 188.01141784 91.15977478 192.55384827 C90.22227478 194.12025452 90.22227478 194.12025452 88.22227478 196.12025452 C85.48122709 196.30832048 82.84203191 196.37203856 80.10069275 196.3473053 C78.84204407 196.34774338 78.84204407 196.34774338 77.55796814 196.34819031 C74.77669534 196.34679385 71.99568844 196.33121787 69.21446228 196.31556702 C67.28918097 196.31183801 65.36389777 196.30899051 63.43861389 196.30699158 C58.36522708 196.29934628 53.29195434 196.27969012 48.21861267 196.25758362 C43.04406782 196.23714447 37.86950459 196.227994 32.69493103 196.21791077 C22.53732876 196.19644505 12.37981125 196.16229833 2.22227478 196.12025452 C3.16455015 197.8529562 4.10746602 199.58530958 5.05064392 201.31752014 C5.57565994 202.28226257 6.10067596 203.247005 6.64160156 204.24098206 C8.92495215 208.40021521 11.28013154 212.51554162 13.65977478 216.62025452 C14.37037048 217.8484491 14.37037048 217.8484491 15.09532166 219.10145569 C18.19269335 224.42651189 21.38676304 229.65654301 24.78477478 234.79603577 C26.22227478 237.12025452 26.22227478 237.12025452 27.51914978 239.74916077 C28.9768349 242.63444118 30.52784117 245.38097584 32.17539978 248.15931702 C32.71164978 249.06939514 33.24789978 249.97947327 33.80039978 250.91712952 C34.92246227 252.81519783 36.05279907 254.7083971 37.19102478 256.59681702 C37.72211853 257.50431702 38.25321228 258.41181702 38.80039978 259.34681702 C39.28927673 260.16746643 39.77815369 260.98811584 40.28184509 261.83363342 C41.35633288 264.44621198 41.21558057 265.52529898 40.22227478 268.12025452 C20.97697358 269.03785954 1.72438743 269.27807444 -17.54048157 269.35243225 C-20.20241576 269.36433062 -22.86433169 269.38143524 -25.52619934 269.40370178 C-29.31328039 269.43357457 -33.09991469 269.44361596 -36.88710022 269.44837952 C-38.04209015 269.46068604 -39.19708008 269.47299255 -40.3870697 269.485672 C-41.44894501 269.48271118 -42.51082031 269.47975037 -43.60487366 269.47669983 C-44.53507324 269.48034546 -45.46527283 269.48399109 -46.42366028 269.48774719 C-49.23380281 269.04905632 -50.0467949 268.32413217 -51.77772522 266.12025452 C-52.73663296 264.66811549 -53.649521 263.18507577 -54.52772522 261.68275452 C-55.04077209 260.80619202 -55.55381897 259.92962952 -56.08241272 259.02650452 C-56.64186584 258.06744202 -57.20131897 257.10837952 -57.77772522 256.12025452 C-58.41967834 255.05806702 -59.06163147 253.99587952 -59.72303772 252.90150452 C-60.35983459 251.83931702 -60.99663147 250.77712952 -61.65272522 249.68275452 C-62.24827209 248.69404358 -62.84381897 247.70533264 -63.45741272 246.68666077 C-64.77772522 244.12025452 -64.77772522 244.12025452 -64.77772522 241.12025452 C-65.43772522 241.12025452 -66.09772522 241.12025452 -66.77772522 241.12025452 C-67.56856506 239.47863342 -67.56856506 239.47863342 -68.37538147 237.80384827 C-71.05789864 232.4399941 -74.13528985 227.32536661 -77.21522522 222.18275452 C-80.78870424 216.19954166 -84.33087407 210.21505608 -87.65834045 204.0907135 C-88.82434605 202.03818762 -90.09062107 200.08199897 -91.40272522 198.12025452 C-94.01457747 194.03357087 -95.4555037 189.76415448 -96.77772522 185.12025452 C-97.43772522 185.12025452 -98.09772522 185.12025452 -98.77772522 185.12025452 C-101.57810296 181.19972568 -103.0858471 177.70579903 -102.50819397 172.85853577 C-101.60442431 169.47060779 -100.11441429 166.82867104 -98.34022522 163.80775452 C-97.72276428 162.7391217 -97.10530334 161.67048889 -96.46913147 160.56947327 C-95.91096741 159.76123108 -95.35280334 158.95298889 -94.77772522 158.12025452 C-94.11772522 158.12025452 -93.45772522 158.12025452 -92.77772522 158.12025452 C-92.70295959 157.2888092 -92.62819397 156.45736389 -92.55116272 155.60072327 C-91.58764314 151.26488516 -89.72401479 148.17624572 -87.40272522 144.43275452 C-86.49170656 142.92546293 -85.58158395 141.41762947 -84.67225647 139.90931702 C-83.95996887 138.73610901 -83.95996887 138.73610901 -83.23329163 137.53919983 C-80.79861735 133.49311585 -78.44711441 129.39946803 -76.09022522 125.30775452 C-75.1685769 123.71387342 -74.24670775 122.12011999 -73.32460022 120.52650452 C-72.10828758 118.42280777 -70.89232274 116.31891736 -69.67811584 114.21400452 C-66.5215934 108.74351301 -63.38169745 103.30997453 -59.77772522 98.12025452 C-55.22666482 98.65477503 -55.22666482 98.65477503 -53.29335022 100.65931702 C-52.87569397 101.34767639 -52.45803772 102.03603577 -52.02772522 102.74525452 C-51.52756897 103.55478577 -51.02741272 104.36431702 -50.51210022 105.19837952 C-49.93975647 106.16259827 -49.36741272 107.12681702 -48.77772522 108.12025452 C-48.0549833 109.30329018 -47.33094758 110.48553607 -46.60585022 111.66712952 C-42.68377542 118.10255401 -38.94629179 124.60336516 -35.35292053 131.22914124 C-32.74811928 136.00999313 -30.07895318 140.75410752 -27.40272522 145.49525452 C-26.83255676 146.50547668 -26.26238831 147.51569885 -25.67494202 148.55653381 C-22.1671118 154.74386673 -18.53970868 160.81859037 -14.76600647 166.84681702 C-12.1737425 171.11463079 -9.71542639 175.45021911 -7.27772522 179.80775452 C-6.8314679 180.59964172 -6.38521057 181.39152893 -5.9254303 182.20741272 C-5.51575012 182.9456427 -5.10606995 183.68387268 -4.68397522 184.44447327 C-4.31594788 185.1053595 -3.94792053 185.76624573 -3.56874084 186.44715881 C-2.77772522 188.12025452 -2.77772522 188.12025452 -2.77772522 190.12025452 C-2.11772522 190.12025452 -1.45772522 190.12025452 -0.77772522 190.12025452 C-0.44772522 188.47025452 -0.11772522 186.82025452 0.22227478 185.12025452 C1.21227478 184.79025452 2.20227478 184.46025452 3.22227478 184.12025452 C4.02787135 182.37871213 4.02787135 182.37871213 4.52305603 180.22572327 C6.29147023 174.41784248 9.25110302 169.58438163 12.40977478 164.43275452 C13.59017535 162.47224617 14.7698651 160.51130967 15.94883728 158.54994202 C16.51634705 157.61118225 17.08385681 156.67242249 17.66856384 155.70521545 C20.22126267 151.4582049 22.66826251 147.1562915 25.09336853 142.83509827 C26.81525204 139.78842394 28.62532614 136.80089906 30.44493103 133.81166077 C31.00623718 132.8726593 31.56754333 131.93365784 32.14585876 130.96620178 C33.26068348 129.10144189 34.39122205 127.24596663 35.53892517 125.40126038 C38.53124657 120.56159002 38.53124657 120.56159002 38.89024353 115.07728577 C38.33981384 114.10146545 37.78938416 113.12564514 37.22227478 112.12025452 C36.659599 111.08457336 36.659599 111.08457336 36.08555603 110.02796936 C34.73969943 107.59166303 33.33340219 105.19937295 31.90977478 102.80775452 C30.95455404 101.1871283 30.00012371 99.56603594 29.04649353 97.94447327 C28.57775818 97.1496051 28.10902283 96.35473694 27.62608337 95.53578186 C25.80300983 92.39882715 24.05070066 89.22540393 22.31138611 86.04139709 C21.35621844 84.35652501 20.29661024 82.73175771 19.22227478 81.12025452 C16.44990801 80.65534883 16.44990801 80.65534883 13.15196228 80.71961975 C11.23987976 80.69961159 11.23987976 80.69961159 9.28916931 80.67919922 C7.89187114 80.67906402 6.49457296 80.67894748 5.09727478 80.67884827 C3.67001483 80.66708236 2.24276722 80.65372008 0.8155365 80.63882446 C-2.94511466 80.60258097 -6.7056565 80.58241958 -10.46644592 80.567276 C-16.4865194 80.54247587 -22.50635118 80.50290739 -28.52619934 80.44537544 C-30.63239632 80.42900626 -32.73836689 80.42526504 -34.84461975 80.42236328 C-36.11934143 80.41217667 -37.39406311 80.40199005 -38.70741272 80.39149475 C-39.83389221 80.3872197 -40.9603717 80.38294464 -42.12098694 80.37854004 C-44.77772522 80.12025452 -44.77772522 80.12025452 -46.77772522 78.12025452 C-46.42374699 74.6546935 -45.3914334 72.04579937 -43.65272522 69.05775452 C-42.98176819 67.89373108 -42.98176819 67.89373108 -42.29725647 66.70619202 C-41.79581116 65.85283264 -41.29436584 64.99947327 -40.77772522 64.12025452 C-40.22471741 63.16377014 -39.67170959 62.20728577 -39.10194397 61.22181702 C-36.43358637 56.61875224 -33.73359254 52.03881783 -30.96522522 47.49525452 C-28.20113557 42.91287777 -25.61205418 38.24274896 -23.02772522 33.55775452 C-19.56296707 27.28228961 -16.03404117 21.05097187 -12.40272522 14.87025452 C-11.99828186 14.17988098 -11.5938385 13.48950745 -11.17713928 12.7782135 C-3.72642921 0.16132623 -3.72642921 0.16132623 0 0 Z " fill="#010101" transform="translate(139.77772521972656,13.879745483398438)"/>
<path d="M0 0 C1.24132187 0.00222061 2.48264374 0.00444122 3.76158142 0.00672913 C4.44447739 0.0065831 5.12737335 0.00643707 5.83096313 0.00628662 C8.09815092 0.00698575 10.36525752 0.01477811 12.63243103 0.02259827 C14.20041865 0.02446245 15.76840685 0.02588635 17.33639526 0.02688599 C21.47103981 0.03071117 25.60564944 0.04054146 29.74028015 0.05158997 C33.95627876 0.06180407 38.172283 0.0663836 42.38829041 0.07142639 C50.66630125 0.08216373 58.94428368 0.09924015 67.22227478 0.12025452 C67.58466248 0.76462463 67.94705017 1.40899475 68.32041931 2.07289124 C69.99458841 5.0478306 71.67091972 8.02154641 73.34727478 10.99525452 C73.91704041 12.00845764 74.48680603 13.02166077 75.07383728 14.06556702 C78.69177047 20.47917586 82.40739946 26.82207023 86.22227478 33.12025452 C89.58917622 38.79845101 92.90746612 44.4936032 96.03477478 50.30775452 C98.99573903 55.78868833 102.15862295 61.13940929 105.33213806 66.49867249 C108.63932347 72.09649548 111.85153286 77.74197313 115.01817322 83.42030334 C117.92426905 88.62346818 120.93793901 93.75358229 124.00743103 98.86244202 C125.22227478 101.12025452 125.22227478 101.12025452 125.22227478 103.12025452 C125.88227478 103.12025452 126.54227478 103.12025452 127.22227478 103.12025452 C127.48782166 103.66294983 127.75336853 104.20564514 128.02696228 104.76478577 C128.38016541 105.48021545 128.73336853 106.19564514 129.09727478 106.93275452 C129.61934509 107.99429749 129.61934509 107.99429749 130.15196228 109.07728577 C131.28792338 111.3327187 131.28792338 111.3327187 133.22227478 114.12025452 C133.79491153 119.07628926 132.70876631 121.59470315 129.97227478 125.68275452 C129.234268 126.8184235 128.50016714 127.95663647 127.76914978 129.09681702 C127.36373962 129.72749084 126.95832947 130.35816467 126.54063416 131.00794983 C123.9756687 135.11759448 121.61153254 139.34440337 119.22227478 143.55775452 C118.70391052 144.46888 118.18554626 145.38000549 117.651474 146.31874084 C116.17330923 148.91824786 114.69750491 151.51908128 113.22227478 154.12025452 C108.46454705 162.49746879 103.642976 170.83090953 98.73936462 179.12342834 C96.12449448 183.55437954 93.57766338 188.01141784 91.15977478 192.55384827 C90.22227478 194.12025452 90.22227478 194.12025452 88.22227478 196.12025452 C85.48122709 196.30832048 82.84203191 196.37203856 80.10069275 196.3473053 C78.84204407 196.34774338 78.84204407 196.34774338 77.55796814 196.34819031 C74.77669534 196.34679385 71.99568844 196.33121787 69.21446228 196.31556702 C67.28918097 196.31183801 65.36389777 196.30899051 63.43861389 196.30699158 C58.36522708 196.29934628 53.29195434 196.27969012 48.21861267 196.25758362 C43.04406782 196.23714447 37.86950459 196.227994 32.69493103 196.21791077 C22.53732876 196.19644505 12.37981125 196.16229833 2.22227478 196.12025452 C3.16455015 197.8529562 4.10746602 199.58530958 5.05064392 201.31752014 C5.57565994 202.28226257 6.10067596 203.247005 6.64160156 204.24098206 C8.92495215 208.40021521 11.28013154 212.51554162 13.65977478 216.62025452 C14.37037048 217.8484491 14.37037048 217.8484491 15.09532166 219.10145569 C18.19269335 224.42651189 21.38676304 229.65654301 24.78477478 234.79603577 C26.22227478 237.12025452 26.22227478 237.12025452 27.51914978 239.74916077 C28.9768349 242.63444118 30.52784117 245.38097584 32.17539978 248.15931702 C32.71164978 249.06939514 33.24789978 249.97947327 33.80039978 250.91712952 C34.92246227 252.81519783 36.05279907 254.7083971 37.19102478 256.59681702 C37.72211853 257.50431702 38.25321228 258.41181702 38.80039978 259.34681702 C39.28927673 260.16746643 39.77815369 260.98811584 40.28184509 261.83363342 C41.35633288 264.44621198 41.21558057 265.52529898 40.22227478 268.12025452 C20.97697358 269.03785954 1.72438743 269.27807444 -17.54048157 269.35243225 C-20.20241576 269.36433062 -22.86433169 269.38143524 -25.52619934 269.40370178 C-29.31328039 269.43357457 -33.09991469 269.44361596 -36.88710022 269.44837952 C-38.04209015 269.46068604 -39.19708008 269.47299255 -40.3870697 269.485672 C-41.44894501 269.48271118 -42.51082031 269.47975037 -43.60487366 269.47669983 C-44.53507324 269.48034546 -45.46527283 269.48399109 -46.42366028 269.48774719 C-49.23380281 269.04905632 -50.0467949 268.32413217 -51.77772522 266.12025452 C-52.73663296 264.66811549 -53.649521 263.18507577 -54.52772522 261.68275452 C-55.04077209 260.80619202 -55.55381897 259.92962952 -56.08241272 259.02650452 C-56.64186584 258.06744202 -57.20131897 257.10837952 -57.77772522 256.12025452 C-58.41967834 255.05806702 -59.06163147 253.99587952 -59.72303772 252.90150452 C-60.35983459 251.83931702 -60.99663147 250.77712952 -61.65272522 249.68275452 C-62.24827209 248.69404358 -62.84381897 247.70533264 -63.45741272 246.68666077 C-64.77772522 244.12025452 -64.77772522 244.12025452 -64.77772522 241.12025452 C-65.43772522 241.12025452 -66.09772522 241.12025452 -66.77772522 241.12025452 C-67.56856506 239.47863342 -67.56856506 239.47863342 -68.37538147 237.80384827 C-71.05789864 232.4399941 -74.13528985 227.32536661 -77.21522522 222.18275452 C-80.78870424 216.19954166 -84.33087407 210.21505608 -87.65834045 204.0907135 C-88.82434605 202.03818762 -90.09062107 200.08199897 -91.40272522 198.12025452 C-94.01457747 194.03357087 -95.4555037 189.76415448 -96.77772522 185.12025452 C-97.43772522 185.12025452 -98.09772522 185.12025452 -98.77772522 185.12025452 C-101.57810296 181.19972568 -103.0858471 177.70579903 -102.50819397 172.85853577 C-101.60442431 169.47060779 -100.11441429 166.82867104 -98.34022522 163.80775452 C-97.72276428 162.7391217 -97.10530334 161.67048889 -96.46913147 160.56947327 C-95.91096741 159.76123108 -95.35280334 158.95298889 -94.77772522 158.12025452 C-94.11772522 158.12025452 -93.45772522 158.12025452 -92.77772522 158.12025452 C-92.70295959 157.2888092 -92.62819397 156.45736389 -92.55116272 155.60072327 C-91.58764314 151.26488516 -89.72401479 148.17624572 -87.40272522 144.43275452 C-86.49170656 142.92546293 -85.58158395 141.41762947 -84.67225647 139.90931702 C-83.95996887 138.73610901 -83.95996887 138.73610901 -83.23329163 137.53919983 C-80.79861735 133.49311585 -78.44711441 129.39946803 -76.09022522 125.30775452 C-75.1685769 123.71387342 -74.24670775 122.12011999 -73.32460022 120.52650452 C-72.10828758 118.42280777 -70.89232274 116.31891736 -69.67811584 114.21400452 C-66.5215934 108.74351301 -63.38169745 103.30997453 -59.77772522 98.12025452 C-55.22666482 98.65477503 -55.22666482 98.65477503 -53.29335022 100.65931702 C-52.87569397 101.34767639 -52.45803772 102.03603577 -52.02772522 102.74525452 C-51.52756897 103.55478577 -51.02741272 104.36431702 -50.51210022 105.19837952 C-49.93975647 106.16259827 -49.36741272 107.12681702 -48.77772522 108.12025452 C-48.0549833 109.30329018 -47.33094758 110.48553607 -46.60585022 111.66712952 C-42.68377542 118.10255401 -38.94629179 124.60336516 -35.35292053 131.22914124 C-32.74811928 136.00999313 -30.07895318 140.75410752 -27.40272522 145.49525452 C-26.83255676 146.50547668 -26.26238831 147.51569885 -25.67494202 148.55653381 C-22.1671118 154.74386673 -18.53970868 160.81859037 -14.76600647 166.84681702 C-12.1737425 171.11463079 -9.71542639 175.45021911 -7.27772522 179.80775452 C-6.8314679 180.59964172 -6.38521057 181.39152893 -5.9254303 182.20741272 C-5.51575012 182.9456427 -5.10606995 183.68387268 -4.68397522 184.44447327 C-4.31594788 185.1053595 -3.94792053 185.76624573 -3.56874084 186.44715881 C-2.77772522 188.12025452 -2.77772522 188.12025452 -2.77772522 190.12025452 C-2.11772522 190.12025452 -1.45772522 190.12025452 -0.77772522 190.12025452 C-0.44772522 188.47025452 -0.11772522 186.82025452 0.22227478 185.12025452 C1.21227478 184.79025452 2.20227478 184.46025452 3.22227478 184.12025452 C4.02787135 182.37871213 4.02787135 182.37871213 4.52305603 180.22572327 C6.29147023 174.41784248 9.25110302 169.58438163 12.40977478 164.43275452 C13.59017535 162.47224617 14.7698651 160.51130967 15.94883728 158.54994202 C16.51634705 157.61118225 17.08385681 156.67242249 17.66856384 155.70521545 C20.22126267 151.4582049 22.66826251 147.1562915 25.09336853 142.83509827 C26.81525204 139.78842394 28.62532614 136.80089906 30.44493103 133.81166077 C31.00623718 132.8726593 31.56754333 131.93365784 32.14585876 130.96620178 C33.26068348 129.10144189 34.39122205 127.24596663 35.53892517 125.40126038 C38.53124657 120.56159002 38.53124657 120.56159002 38.89024353 115.07728577 C38.33981384 114.10146545 37.78938416 113.12564514 37.22227478 112.12025452 C36.659599 111.08457336 36.659599 111.08457336 36.08555603 110.02796936 C34.73969943 107.59166303 33.33340219 105.19937295 31.90977478 102.80775452 C30.95455404 101.1871283 30.00012371 99.56603594 29.04649353 97.94447327 C28.57775818 97.1496051 28.10902283 96.35473694 27.62608337 95.53578186 C25.80300983 92.39882715 24.05070066 89.22540393 22.31138611 86.04139709 C21.35621844 84.35652501 20.29661024 82.73175771 19.22227478 81.12025452 C16.43629305 80.64146053 16.43629305 80.64146053 13.120224 80.68788147 C11.83904694 80.66808731 10.55786987 80.64829315 9.23786926 80.62789917 C7.83423509 80.62112886 6.43059932 80.61468205 5.02696228 80.60853577 C3.59490914 80.59169611 2.16287085 80.57354683 0.73085022 80.55413818 C-3.04039369 80.50655394 -6.81157743 80.47679951 -10.58302307 80.45069885 C-14.4305968 80.42093548 -18.277963 80.3743908 -22.12538147 80.32923889 C-29.67605994 80.24311015 -37.22675335 80.17580793 -44.77772522 80.12025452 C-45.10772522 79.46025452 -45.43772522 78.80025452 -45.77772522 78.12025452 C-37.27630373 77.91140502 -28.77595927 77.75165776 -20.27260399 77.65394497 C-16.3236803 77.60703766 -12.37651539 77.54346407 -8.42860413 77.44129944 C-4.61589527 77.343255 -0.80487352 77.28964828 3.00899887 77.26635933 C4.46125736 77.24977248 5.91342681 77.21737685 7.36496353 77.16868401 C18.69497067 76.80384763 18.69497067 76.80384763 22.33929443 79.94494629 C23.91612571 82.26898177 25.08296618 84.55689182 26.22227478 87.12025452 C26.92652777 88.29662411 27.64691905 89.46358679 28.38804626 90.61708069 C30.12689167 93.54830204 31.85537253 96.48463767 33.56578064 99.43251038 C34.30064152 100.69215475 35.0426308 101.9476651 35.79136658 103.19911194 C36.88754213 105.03226024 37.96122617 106.87699774 39.03086853 108.72572327 C39.66822937 109.81006653 40.30559021 110.89440979 40.96226501 112.01161194 C42.44228349 115.66305067 42.32204099 117.37669643 41.22227478 121.12025452 C40.22935486 123.24061584 40.22935486 123.24061584 38.99180603 125.20228577 C38.5256488 125.95662903 38.05949158 126.71097229 37.57920837 127.48817444 C37.06954529 128.29488586 36.5598822 129.10159729 36.03477478 129.93275452 C31.19197179 137.78851378 26.57398363 145.73777669 22.09727478 153.80775452 C17.99666746 161.18085914 13.87398762 168.53506871 9.59727478 175.80775452 C9.20781677 176.4718634 8.81835876 177.13597229 8.417099 177.82020569 C6.70030756 180.72196876 4.95367497 183.50227368 3.01133728 186.26478577 C1.25549472 189.06723317 0.75761704 190.91863843 0.22227478 194.12025452 C11.28772347 194.64129236 22.34679382 195.00637063 33.42345428 195.1798439 C38.56993134 195.26519394 43.70390968 195.40136562 48.84483337 195.6598053 C69.65594851 197.60967146 69.65594851 197.60967146 89.0112915 191.90919495 C95.74684316 185.79623759 98.89098619 177.18905442 101.81413269 168.79804993 C104.16526714 162.65734043 107.57227085 157.23430302 110.97227478 151.62025452 C112.20069284 149.49261483 113.42525481 147.36273913 114.64414978 145.22962952 C116.98393467 141.19560562 119.38768503 137.2131954 121.86289978 133.26087952 C122.71416443 131.89092834 122.71416443 131.89092834 123.58262634 130.49330139 C124.64255332 128.79767074 125.71655118 127.11071949 126.80723572 125.43470764 C127.27419861 124.68640686 127.7411615 123.93810608 128.22227478 123.16712952 C128.84102478 122.20565002 128.84102478 122.20565002 129.47227478 121.2247467 C130.84417626 117.37520543 129.71102491 114.15217007 128.01402283 110.56922913 C127.25665833 109.30864685 127.25665833 109.30864685 126.48399353 108.02259827 C125.91745056 107.06740295 125.35090759 106.11220764 124.76719666 105.12806702 C123.84777283 103.60826233 123.84777283 103.60826233 122.90977478 102.05775452 C121.62113094 99.89031076 120.33338568 97.72233253 119.04649353 95.55384827 C118.39986755 94.46958557 117.75324158 93.38532288 117.08702087 92.26820374 C114.41045968 87.74979839 111.81295377 83.18826221 109.22227478 78.62025452 C104.99742799 71.19719871 100.72041882 63.80630359 96.40977478 56.43275452 C91.38796651 47.84110926 86.38612148 39.2383221 81.40977478 30.62025452 C80.82413757 29.60745422 80.23850037 28.59465393 79.63511658 27.55116272 C74.76510298 19.10921527 70.00125209 10.61621418 65.22227478 2.12025452 C43.11227478 2.12025452 21.00227478 2.12025452 -1.77772522 2.12025452 C-6.39772522 10.37025452 -11.01772522 18.62025452 -15.77772522 27.12025452 C-28.80897522 49.52485978 -28.80897522 49.52485978 -32.77772522 54.12025452 C-33.10772522 53.46025452 -33.43772522 52.80025452 -33.77772522 52.12025452 C-32.91444397 50.37025452 -32.91444397 50.37025452 -31.46522522 48.12025452 C-28.49054636 43.34565449 -25.73471688 38.48644787 -23.02772522 33.55775452 C-19.5642334 27.28161954 -16.03401788 21.05093223 -12.40272522 14.87025452 C-11.99828186 14.17988098 -11.5938385 13.48950745 -11.17713928 12.7782135 C-3.72642921 0.16132623 -3.72642921 0.16132623 0 0 Z " fill="#020202" transform="translate(139.77772521972656,13.879745483398438)"/>
<path d="M0 0 C1.24132187 0.00222061 2.48264374 0.00444122 3.76158142 0.00672913 C4.44447739 0.0065831 5.12737335 0.00643707 5.83096313 0.00628662 C8.09815092 0.00698575 10.36525752 0.01477811 12.63243103 0.02259827 C14.20041865 0.02446245 15.76840685 0.02588635 17.33639526 0.02688599 C21.47103981 0.03071117 25.60564944 0.04054146 29.74028015 0.05158997 C33.95627876 0.06180407 38.172283 0.0663836 42.38829041 0.07142639 C50.66630125 0.08216373 58.94428368 0.09924015 67.22227478 0.12025452 C67.58466248 0.76462463 67.94705017 1.40899475 68.32041931 2.07289124 C69.99458841 5.0478306 71.67091972 8.02154641 73.34727478 10.99525452 C73.91704041 12.00845764 74.48680603 13.02166077 75.07383728 14.06556702 C78.69177047 20.47917586 82.40739946 26.82207023 86.22227478 33.12025452 C89.58917622 38.79845101 92.90746612 44.4936032 96.03477478 50.30775452 C98.99573903 55.78868833 102.15862295 61.13940929 105.33213806 66.49867249 C108.63932347 72.09649548 111.85153286 77.74197313 115.01817322 83.42030334 C117.92426905 88.62346818 120.93793901 93.75358229 124.00743103 98.86244202 C125.22227478 101.12025452 125.22227478 101.12025452 125.22227478 103.12025452 C125.88227478 103.12025452 126.54227478 103.12025452 127.22227478 103.12025452 C127.48782166 103.66294983 127.75336853 104.20564514 128.02696228 104.76478577 C128.38016541 105.48021545 128.73336853 106.19564514 129.09727478 106.93275452 C129.61934509 107.99429749 129.61934509 107.99429749 130.15196228 109.07728577 C131.28792338 111.3327187 131.28792338 111.3327187 133.22227478 114.12025452 C133.79491153 119.07628926 132.70876631 121.59470315 129.97227478 125.68275452 C129.234268 126.8184235 128.50016714 127.95663647 127.76914978 129.09681702 C127.36373962 129.72749084 126.95832947 130.35816467 126.54063416 131.00794983 C123.9756687 135.11759448 121.61153254 139.34440337 119.22227478 143.55775452 C118.70391052 144.46888 118.18554626 145.38000549 117.651474 146.31874084 C116.17330923 148.91824786 114.69750491 151.51908128 113.22227478 154.12025452 C108.46454705 162.49746879 103.642976 170.83090953 98.73936462 179.12342834 C96.12449448 183.55437954 93.57766338 188.01141784 91.15977478 192.55384827 C90.22227478 194.12025452 90.22227478 194.12025452 88.22227478 196.12025452 C85.48122709 196.30832048 82.84203191 196.37203856 80.10069275 196.3473053 C78.84204407 196.34774338 78.84204407 196.34774338 77.55796814 196.34819031 C74.77669534 196.34679385 71.99568844 196.33121787 69.21446228 196.31556702 C67.28918097 196.31183801 65.36389777 196.30899051 63.43861389 196.30699158 C58.36522708 196.29934628 53.29195434 196.27969012 48.21861267 196.25758362 C43.04406782 196.23714447 37.86950459 196.227994 32.69493103 196.21791077 C22.53732876 196.19644505 12.37981125 196.16229833 2.22227478 196.12025452 C3.16455015 197.8529562 4.10746602 199.58530958 5.05064392 201.31752014 C5.57565994 202.28226257 6.10067596 203.247005 6.64160156 204.24098206 C8.92495215 208.40021521 11.28013154 212.51554162 13.65977478 216.62025452 C14.37037048 217.8484491 14.37037048 217.8484491 15.09532166 219.10145569 C18.19269335 224.42651189 21.38676304 229.65654301 24.78477478 234.79603577 C26.22227478 237.12025452 26.22227478 237.12025452 27.51914978 239.74916077 C28.9768349 242.63444118 30.52784117 245.38097584 32.17539978 248.15931702 C32.71164978 249.06939514 33.24789978 249.97947327 33.80039978 250.91712952 C34.92246227 252.81519783 36.05279907 254.7083971 37.19102478 256.59681702 C37.72211853 257.50431702 38.25321228 258.41181702 38.80039978 259.34681702 C39.28927673 260.16746643 39.77815369 260.98811584 40.28184509 261.83363342 C41.35633288 264.44621198 41.21558057 265.52529898 40.22227478 268.12025452 C20.97697358 269.03785954 1.72438743 269.27807444 -17.54048157 269.35243225 C-20.20241576 269.36433062 -22.86433169 269.38143524 -25.52619934 269.40370178 C-29.31328039 269.43357457 -33.09991469 269.44361596 -36.88710022 269.44837952 C-38.04209015 269.46068604 -39.19708008 269.47299255 -40.3870697 269.485672 C-41.44894501 269.48271118 -42.51082031 269.47975037 -43.60487366 269.47669983 C-44.53507324 269.48034546 -45.46527283 269.48399109 -46.42366028 269.48774719 C-49.23380281 269.04905632 -50.0467949 268.32413217 -51.77772522 266.12025452 C-52.73663296 264.66811549 -53.649521 263.18507577 -54.52772522 261.68275452 C-55.04077209 260.80619202 -55.55381897 259.92962952 -56.08241272 259.02650452 C-56.64186584 258.06744202 -57.20131897 257.10837952 -57.77772522 256.12025452 C-58.41967834 255.05806702 -59.06163147 253.99587952 -59.72303772 252.90150452 C-60.35983459 251.83931702 -60.99663147 250.77712952 -61.65272522 249.68275452 C-62.24827209 248.69404358 -62.84381897 247.70533264 -63.45741272 246.68666077 C-64.77772522 244.12025452 -64.77772522 244.12025452 -64.77772522 241.12025452 C-65.43772522 241.12025452 -66.09772522 241.12025452 -66.77772522 241.12025452 C-67.56856506 239.47863342 -67.56856506 239.47863342 -68.37538147 237.80384827 C-71.05789864 232.4399941 -74.13528985 227.32536661 -77.21522522 222.18275452 C-80.78870424 216.19954166 -84.33087407 210.21505608 -87.65834045 204.0907135 C-88.82434605 202.03818762 -90.09062107 200.08199897 -91.40272522 198.12025452 C-94.01457747 194.03357087 -95.4555037 189.76415448 -96.77772522 185.12025452 C-97.43772522 185.12025452 -98.09772522 185.12025452 -98.77772522 185.12025452 C-99.10772522 184.13025452 -99.43772522 183.14025452 -99.77772522 182.12025452 C-99.11772522 181.79025452 -98.45772522 181.46025452 -97.77772522 181.12025452 C-96.85975647 182.71140035 -95.94178772 184.30254618 -95.02381897 185.89369202 C-94.42392151 186.93348206 -93.82402405 187.97327209 -93.20594788 189.04457092 C-91.863062 191.37230565 -90.52027215 193.70009548 -89.17762756 196.02796936 C-85.70719013 202.04467484 -82.23496823 208.06033312 -78.75819397 214.07337952 C-67.92562413 232.81546639 -67.92562413 232.81546639 -64.17640686 239.51844788 C-63.15129741 241.35025502 -62.10155671 243.16824485 -61.04647827 244.98295593 C-59.46647496 247.76572569 -58.1313557 250.56104138 -56.88468933 253.50695801 C-53.33961204 261.60909001 -53.33961204 261.60909001 -46.74744415 267.06531143 C-40.82993537 268.51635021 -34.80360446 268.07217133 -28.76991272 267.78041077 C-26.83375149 267.74865901 -24.89745262 267.72448109 -22.96110535 267.70751953 C-17.89055444 267.64293364 -12.82842914 267.47631686 -7.76118469 267.28755188 C-2.5803582 267.11288756 2.60184601 267.03584874 7.78477478 266.95033264 C17.93428923 266.7686008 28.0775788 266.47892568 38.22227478 266.12025452 C36.89608303 262.74228041 35.46662525 259.60246473 33.67539978 256.44447327 C33.16734802 255.54631897 32.65929626 254.64816467 32.135849 253.72279358 C31.58686951 252.76083069 31.03789001 251.7988678 30.47227478 250.80775452 C29.8988031 249.79809631 29.32533142 248.78843811 28.73448181 247.7481842 C22.87159757 237.45277512 16.893343 227.2250342 10.90782166 217.00062561 C8.21463779 212.39833951 5.52763682 207.79251889 2.84727478 203.18275452 C2.37660583 202.37741272 1.90593689 201.57207092 1.42100525 200.74232483 C-1.77772522 195.23481855 -1.77772522 195.23481855 -1.77772522 194.12025452 C-0.69825623 194.16990356 0.38121277 194.21955261 1.49339294 194.27070618 C11.72952473 194.72275873 21.96073083 195.02305561 32.20575714 195.1798439 C37.47316157 195.26520539 42.72835931 195.40143056 47.99034119 195.6598053 C70.48783987 197.88412039 70.48783987 197.88412039 90.63157654 190.47767639 C96.26441769 184.292706 99.14730562 176.61545136 101.83024597 168.79804993 C104.15825522 162.647357 107.56908047 157.23291692 110.97227478 151.62025452 C112.2008077 149.49268115 113.42538573 147.36281393 114.64414978 145.22962952 C116.98393467 141.19560562 119.38768503 137.2131954 121.86289978 133.26087952 C122.71416443 131.89092834 122.71416443 131.89092834 123.58262634 130.49330139 C124.64255332 128.79767074 125.71655118 127.11071949 126.80723572 125.43470764 C127.27419861 124.68640686 127.7411615 123.93810608 128.22227478 123.16712952 C128.84102478 122.20565002 128.84102478 122.20565002 129.47227478 121.2247467 C130.84417626 117.37520543 129.71102491 114.15217007 128.01402283 110.56922913 C127.25665833 109.30864685 127.25665833 109.30864685 126.48399353 108.02259827 C125.91745056 107.06740295 125.35090759 106.11220764 124.76719666 105.12806702 C123.84777283 103.60826233 123.84777283 103.60826233 122.90977478 102.05775452 C121.62113094 99.89031076 120.33338568 97.72233253 119.04649353 95.55384827 C118.39986755 94.46958557 117.75324158 93.38532288 117.08702087 92.26820374 C114.41045968 87.74979839 111.81295377 83.18826221 109.22227478 78.62025452 C104.99742799 71.19719871 100.72041882 63.80630359 96.40977478 56.43275452 C91.38796651 47.84110926 86.38612148 39.2383221 81.40977478 30.62025452 C80.82413757 29.60745422 80.23850037 28.59465393 79.63511658 27.55116272 C74.76510298 19.10921527 70.00125209 10.61621418 65.22227478 2.12025452 C43.11227478 2.12025452 21.00227478 2.12025452 -1.77772522 2.12025452 C-6.39772522 10.37025452 -11.01772522 18.62025452 -15.77772522 27.12025452 C-28.80897522 49.52485978 -28.80897522 49.52485978 -32.77772522 54.12025452 C-33.10772522 53.46025452 -33.43772522 52.80025452 -33.77772522 52.12025452 C-32.91444397 50.37025452 -32.91444397 50.37025452 -31.46522522 48.12025452 C-28.49054636 43.34565449 -25.73471688 38.48644787 -23.02772522 33.55775452 C-19.5642334 27.28161954 -16.03401788 21.05093223 -12.40272522 14.87025452 C-11.99828186 14.17988098 -11.5938385 13.48950745 -11.17713928 12.7782135 C-3.72642921 0.16132623 -3.72642921 0.16132623 0 0 Z " fill="#F0F0F0" transform="translate(139.77772521972656,13.879745483398438)"/>
<path d="M0 0 C8.50142149 -0.20884949 17.00176595 -0.36859675 25.50512123 -0.46630955 C29.45404492 -0.51321686 33.40120983 -0.57679045 37.34912109 -0.67895508 C41.16182994 -0.77699952 44.9728517 -0.83060624 48.78672409 -0.85389519 C50.23898258 -0.87048204 51.69115203 -0.90287767 53.14268875 -0.95157051 C64.47269589 -1.31640688 64.47269589 -1.31640688 68.11701965 1.82469177 C69.69385093 4.14872725 70.8606914 6.4366373 72 9 C72.70425299 10.1763696 73.42464427 11.34333228 74.16577148 12.49682617 C75.90461689 15.42804753 77.63309775 18.36438315 79.34350586 21.31225586 C80.07836674 22.57190023 80.82035602 23.82741058 81.5690918 25.07885742 C82.66526735 26.91200572 83.73895139 28.75674322 84.80859375 30.60546875 C85.44595459 31.68981201 86.08331543 32.77415527 86.73999023 33.89135742 C88.22000871 37.54279615 88.09976621 39.25644191 87 43 C86.00708008 45.12036133 86.00708008 45.12036133 84.76953125 47.08203125 C84.30337402 47.83637451 83.8372168 48.59071777 83.35693359 49.36791992 C82.84727051 50.17463135 82.33760742 50.98134277 81.8125 51.8125 C76.96970016 59.66825416 72.35160452 67.61746818 67.875 75.6875 C62.72084979 84.95749343 57.47034001 94.15512275 52.03125 103.26074219 C51.04849617 104.91820863 50.08618845 106.58774757 49.125 108.2578125 C48.58875 109.18335938 48.0525 110.10890625 47.5 111.0625 C47.0565625 111.83722656 46.613125 112.61195313 46.15625 113.41015625 C45.7746875 113.93480469 45.393125 114.45945312 45 115 C44.34 115 43.68 115 43 115 C41.72583008 113.20947266 41.72583008 113.20947266 40.26953125 110.6640625 C39.72151855 109.7150708 39.17350586 108.7660791 38.60888672 107.78833008 C38.0160791 106.74443115 37.42327148 105.70053223 36.8125 104.625 C36.19391113 103.54951904 35.57532227 102.47403809 34.93798828 101.3659668 C33.62212557 99.07718623 32.30888444 96.78710802 30.99951172 94.49462891 C29.06427121 91.10839931 27.11387562 87.73107555 25.16015625 84.35546875 C19.85918843 75.19497047 14.57702476 66.02416866 9.34179688 56.82592773 C4.56656439 48.43986283 -0.25020284 40.0786227 -5.125 31.75 C-5.9605542 30.30995605 -5.9605542 30.30995605 -6.81298828 28.84082031 C-7.59005127 27.51969238 -7.59005127 27.51969238 -8.3828125 26.171875 C-8.84059082 25.3890918 -9.29836914 24.60630859 -9.77001953 23.79980469 C-10.88530804 21.8547928 -10.88530804 21.8547928 -13 21 C-13.40400024 22.06951904 -13.40400024 22.06951904 -13.81616211 23.16064453 C-15.02043311 26.04900745 -16.41191176 28.70039854 -17.94140625 31.4296875 C-18.52067871 32.46504639 -19.09995117 33.50040527 -19.69677734 34.56713867 C-20.31246582 35.65873291 -20.9281543 36.75032715 -21.5625 37.875 C-22.50923584 39.5597644 -22.50923584 39.5597644 -23.47509766 41.27856445 C-27.52498655 48.45922953 -31.67216333 55.56719051 -35.95703125 62.609375 C-39.41248602 68.34424065 -42.70446535 74.17220166 -46 80 C-47 77 -47 77 -45.4921875 73.5546875 C-42.52997684 67.98878267 -39.32035685 62.5591419 -36.125 57.125 C-35.52558594 56.10019531 -34.92617188 55.07539063 -34.30859375 54.01953125 C-31.01594676 48.39846144 -27.69126626 42.79839114 -24.31835938 37.22509766 C-22.95540957 34.92474126 -21.65719393 32.59619131 -20.375 30.25 C-18.4225578 26.69263768 -16.30932972 23.33569848 -14 20 C-9.4489396 20.53452052 -9.4489396 20.53452052 -7.515625 22.5390625 C-7.09796875 23.22742188 -6.6803125 23.91578125 -6.25 24.625 C-5.74984375 25.43453125 -5.2496875 26.2440625 -4.734375 27.078125 C-4.16203125 28.04234375 -3.5896875 29.0065625 -3 30 C-2.27725808 31.18303566 -1.55322236 32.36528156 -0.828125 33.546875 C3.0939498 39.98229949 6.83143343 46.48311064 10.42480469 53.10888672 C13.02960594 57.88973861 15.69877204 62.633853 18.375 67.375 C18.94516846 68.38522217 19.51533691 69.39544434 20.1027832 70.4362793 C23.61061342 76.62361222 27.23801654 82.69833585 31.01171875 88.7265625 C33.60398272 92.99437627 36.06229883 97.3299646 38.5 101.6875 C39.16938599 102.87533081 39.16938599 102.87533081 39.85229492 104.0871582 C40.2619751 104.82538818 40.67165527 105.56361816 41.09375 106.32421875 C41.46177734 106.98510498 41.82980469 107.64599121 42.20898438 108.3269043 C43 110 43 110 43 112 C43.66 112 44.32 112 45 112 C45.33 110.35 45.66 108.7 46 107 C46.99 106.67 47.98 106.34 49 106 C49.80559657 104.25845761 49.80559657 104.25845761 50.30078125 102.10546875 C52.06919545 96.29758797 55.02882824 91.46412712 58.1875 86.3125 C59.36790057 84.35199166 60.54759032 82.39105515 61.7265625 80.4296875 C62.29407227 79.49092773 62.86158203 78.55216797 63.44628906 77.58496094 C65.99898789 73.33795038 68.44598773 69.03603698 70.87109375 64.71484375 C72.59297726 61.66816942 74.40305136 58.68064454 76.22265625 55.69140625 C76.7839624 54.75240479 77.34526855 53.81340332 77.92358398 52.84594727 C79.0384087 50.98118737 80.16894727 49.12571211 81.31665039 47.28100586 C84.30897179 42.4413355 84.30897179 42.4413355 84.66796875 36.95703125 C84.11753906 35.98121094 83.56710938 35.00539062 83 34 C82.43732422 32.96431885 82.43732422 32.96431885 81.86328125 31.90771484 C80.51742465 29.47140851 79.11112741 27.07911843 77.6875 24.6875 C76.73227926 23.06687378 75.77784893 21.44578142 74.82421875 19.82421875 C74.3554834 19.02935059 73.88674805 18.23448242 73.40380859 17.41552734 C71.58073505 14.27857263 69.82842587 11.10514941 68.08911133 7.92114258 C67.13394366 6.23627049 66.07433546 4.61150319 65 3 C62.21401827 2.52120602 62.21401827 2.52120602 58.89794922 2.56762695 C57.61677216 2.54783279 56.33559509 2.52803864 55.01559448 2.50764465 C53.61196031 2.50087434 52.20832454 2.49442754 50.8046875 2.48828125 C49.37263436 2.47144159 47.94059607 2.45329232 46.50857544 2.43388367 C42.73733153 2.38629942 38.96614779 2.356545 35.19470215 2.33044434 C31.34712842 2.30068096 27.49976222 2.25413629 23.65234375 2.20898438 C16.10166528 2.12285564 8.55097187 2.05555341 1 2 C0.505 1.01 0.505 1.01 0 0 Z " fill="#EEEEEE" transform="translate(94,92)"/>
<path d="M0 0 C4.0958511 4.65437624 6.89042636 9.91776113 9.875 15.3125 C14.58331054 23.73800419 19.3673138 32.11180883 24.25 40.4375 C31.40584348 52.6502697 31.40584348 52.6502697 34.66186523 58.5 C35.37873273 59.77643268 36.10976628 61.04502761 36.85571289 62.3046875 C38.85137559 65.70812935 40.40012516 68.99383958 41.71484375 72.71875 C43.66658661 77.66026778 45.4040291 82.03145812 50 85 C59.7146249 87.39531003 70.10279471 86.67874531 80 86 C80 86.33 80 86.66 80 87 C75.78317252 87.21721322 71.56603409 87.41403398 67.34741211 87.59204102 C65.91258349 87.65545437 64.47798927 87.72442591 63.04370117 87.79907227 C60.98132213 87.90543934 58.91892477 87.99175714 56.85546875 88.07421875 C55.61434326 88.13182373 54.37321777 88.18942871 53.09448242 88.2487793 C50 88 50 88 48.15649414 86.62402344 C46.7507528 84.64999106 45.47361641 82.65570897 44.25 80.5625 C43.73695312 79.6859375 43.22390625 78.809375 42.6953125 77.90625 C42.13585937 76.9471875 41.57640625 75.988125 41 75 C40.35804687 73.9378125 39.71609375 72.875625 39.0546875 71.78125 C38.41789062 70.7190625 37.78109375 69.656875 37.125 68.5625 C36.52945313 67.57378906 35.93390625 66.58507812 35.3203125 65.56640625 C34 63 34 63 34 60 C33.34 60 32.68 60 32 60 C31.47277344 58.90558594 30.94554688 57.81117188 30.40234375 56.68359375 C27.71982658 51.31973958 24.64243537 46.20511209 21.5625 41.0625 C17.98902098 35.07928714 14.44685115 29.09480156 11.11938477 22.97045898 C9.95337917 20.9179331 8.68710415 18.96174445 7.375 17 C4.76314775 12.91331636 3.32222152 8.64389996 2 4 C1.34 4 0.68 4 0 4 C-0.33 3.01 -0.66 2.02 -1 1 C-0.67 0.67 -0.34 0.34 0 0 Z " fill="#EFEFEF" transform="translate(41,195)"/>
<path d="M0 0 C8.53612209 -0.13904225 17.07177092 -0.2456402 25.60874557 -0.31087303 C29.57290399 -0.34218257 33.53628757 -0.38464536 37.5 -0.45263672 C41.32557021 -0.51784752 45.15039547 -0.55370889 48.97647858 -0.56926346 C50.43582134 -0.58034717 51.89512345 -0.60199241 53.35414886 -0.63438034 C55.39942866 -0.67797495 57.44163479 -0.68393409 59.48730469 -0.68115234 C60.65090515 -0.69447601 61.81450562 -0.70779968 63.0133667 -0.7215271 C66 0 66 0 68.40704346 3.04257202 C68.93271912 4.01852325 69.45839478 4.99447449 70 6 C69.01 6 68.02 6 67 6 C66.01 4.515 66.01 4.515 65 3 C62.21401827 2.52120602 62.21401827 2.52120602 58.89794922 2.56762695 C57.61677216 2.54783279 56.33559509 2.52803864 55.01559448 2.50764465 C53.61196031 2.50087434 52.20832454 2.49442754 50.8046875 2.48828125 C49.37263436 2.47144159 47.94059607 2.45329232 46.50857544 2.43388367 C42.73733153 2.38629942 38.96614779 2.356545 35.19470215 2.33044434 C31.34712842 2.30068096 27.49976222 2.25413629 23.65234375 2.20898438 C16.10166528 2.12285564 8.55097187 2.05555341 1 2 C0.67 1.34 0.34 0.68 0 0 Z " fill="#F5F5F5" transform="translate(94,92)"/>
<path d="M0 0 C0.66 0 1.32 0 2 0 C2.38218767 1.65614657 2.71395102 3.32457024 3 5 C0.41956753 7.58043247 -6.62701806 6.45476095 -10.0625 6.5625 C-11.36968994 6.6049585 -12.67687988 6.64741699 -14.02368164 6.69116211 C-37.66925964 7.37879577 -61.34750456 7.0830097 -85 7 C-85 6.67 -85 6.34 -85 6 C-65.58413056 5.23024216 -46.17870744 4.7445593 -26.75 4.4375 C-24.13150637 4.39412379 -21.51301675 4.3505049 -18.89453125 4.30664062 C-12.59639731 4.20164798 -6.29822172 4.09958028 0 4 C0 2.68 0 1.36 0 0 Z " fill="#FBFBFB" transform="translate(178,276)"/>
<path d="M0 0 C3.64482073 4.26648408 6.43270726 8.85961026 9.25 13.6875 C9.93835938 14.84475586 9.93835938 14.84475586 10.640625 16.02539062 C11.07375 16.76337891 11.506875 17.50136719 11.953125 18.26171875 C12.34661133 18.93162842 12.74009766 19.60153809 13.14550781 20.29174805 C14 22 14 22 14 24 C13.34 24 12.68 24 12 24 C7.23139028 17.85251518 4.07848246 11.45808411 2 4 C1.34 4 0.68 4 0 4 C-0.33 3.01 -0.66 2.02 -1 1 C-0.67 0.67 -0.34 0.34 0 0 Z " fill="#EDEDED" transform="translate(41,195)"/>
<path d="M0 0 C0.95439263 2.54167161 1.14579893 3.64239346 0.10375977 6.19824219 C-0.36231689 6.97329102 -0.82839355 7.74833984 -1.30859375 8.546875 C-1.80810547 9.39121094 -2.30761719 10.23554688 -2.82226562 11.10546875 C-3.35529297 11.97816406 -3.88832031 12.85085937 -4.4375 13.75 C-4.96666016 14.63816406 -5.49582031 15.52632812 -6.04101562 16.44140625 C-7.34977791 18.63446737 -8.6696404 20.81999632 -10 23 C-10.66 22.01 -11.32 21.02 -12 20 C-8 13.33333333 -4 6.66666667 0 0 Z " fill="#ECECEC" transform="translate(162,162)"/>
<path d="M0 0 C0.66 0 1.32 0 2 0 C0.71075644 3.40202433 -0.7652076 6.50564554 -2.6015625 9.64453125 C-3.09140625 10.48564453 -3.58125 11.32675781 -4.0859375 12.19335938 C-4.84777344 13.48983398 -4.84777344 13.48983398 -5.625 14.8125 C-6.140625 15.69615234 -6.65625 16.57980469 -7.1875 17.49023438 C-8.45531114 19.66194789 -9.72622348 21.8317818 -11 24 C-11.578125 22.1171875 -11.578125 22.1171875 -12 20 C-10.75 18.125 -10.75 18.125 -9 16 C-8.566875 15.13375 -8.13375 14.2675 -7.6875 13.375 C-6.19397776 10.38795552 -4.61653923 7.51033925 -2.9375 4.625 C-2.43089844 3.75101562 -1.92429687 2.87703125 -1.40234375 1.9765625 C-0.93957031 1.32429688 -0.47679688 0.67203125 0 0 Z " fill="#F6F6F6" transform="translate(105,68)"/>
<path d="M0 0 C0.33 0.66 0.66 1.32 1 2 C-0.20552826 4.18185733 -1.44859669 6.2331821 -2.8125 8.3125 C-5.26387207 12.09009431 -7.48640765 15.73150939 -9 20 C-9.66 19.67 -10.32 19.34 -11 19 C-4.25 2.125 -4.25 2.125 0 0 Z " fill="#F0F0F0" transform="translate(241,185)"/>
<path d="M0 0 C0.66 0 1.32 0 2 0 C0.51481201 4.04301175 -1.42877998 7.61146256 -3.625 11.3125 C-4.25664063 12.38113281 -4.88828125 13.44976562 -5.5390625 14.55078125 C-6.26222656 15.76314453 -6.26222656 15.76314453 -7 17 C-7.73828125 15.421875 -7.73828125 15.421875 -8 13 C-6.82043622 10.58844738 -5.63819637 8.48372876 -4.1875 6.25 C-3.63352539 5.34701172 -3.63352539 5.34701172 -3.06835938 4.42578125 C-2.10983822 2.90797934 -1.06093849 1.44806594 0 0 Z " fill="#F7F7F7" transform="translate(45,172)"/>
<path d="M0 0 C1 3 1 3 0.28735352 4.80932617 C-0.09493408 5.46392822 -0.47722168 6.11853027 -0.87109375 6.79296875 C-1.48500977 7.8612793 -1.48500977 7.8612793 -2.11132812 8.95117188 C-2.54896484 9.68916016 -2.98660156 10.42714844 -3.4375 11.1875 C-3.87126953 11.93708984 -4.30503906 12.68667969 -4.75195312 13.45898438 C-5.82557231 15.31127243 -6.91162681 17.1563425 -8 19 C-8.80168206 16.69932794 -9.18677067 15.47988352 -8.28735352 13.16894531 C-7.71392212 12.25773926 -7.71392212 12.25773926 -7.12890625 11.328125 C-6.71962891 10.66425781 -6.31035156 10.00039062 -5.88867188 9.31640625 C-5.45103516 8.63449219 -5.01339844 7.95257813 -4.5625 7.25 C-4.12873047 6.55261719 -3.69496094 5.85523438 -3.24804688 5.13671875 C-2.17647973 3.41750114 -1.08967644 1.707797 0 0 Z " fill="#F7F7F7" transform="translate(172,145)"/>
<path d="M0 0 C1 3 1 3 -0.65234375 6.35546875 C-1.40377702 7.63889017 -2.16596501 8.91606134 -2.9375 10.1875 C-3.51661133 11.16879883 -3.51661133 11.16879883 -4.10742188 12.16992188 C-5.06253088 13.78535316 -6.03010066 15.39340525 -7 17 C-7.66 16.34 -8.32 15.68 -9 15 C-6 10 -3 5 0 0 Z " fill="#F6F6F6" transform="translate(115,51)"/>
<path d="M0 0 C0.66 0 1.32 0 2 0 C2.66 1.98 3.32 3.96 4 6 C4.66 6 5.32 6 6 6 C6.33 4.68 6.66 3.36 7 2 C8 5 8 5 7.0625 7.1875 C6.5365625 8.0846875 6.5365625 8.0846875 6 9 C5.34 9 4.68 9 4 9 C0 2.25 0 2.25 0 0 Z " fill="#F7F7F7" transform="translate(133,198)"/>
<path d="M0 0 C0.66 0 1.32 0 2 0 C2.83848804 1.45537568 3.67063934 2.91440373 4.5 4.375 C5.19609375 5.59316406 5.19609375 5.59316406 5.90625 6.8359375 C7 9 7 9 7 11 C7.66 11 8.32 11 9 11 C8.67 11.66 8.34 12.32 8 13 C4.32117927 9.71533863 2.24849899 6.33639092 0 2 C0 1.34 0 0.68 0 0 Z " fill="#F6F6F6" transform="translate(258,106)"/>
<path d="M0 0 C0.66 0 1.32 0 2 0 C3.5078125 2.1171875 3.5078125 2.1171875 5.125 4.875 C5.66382812 5.77992188 6.20265625 6.68484375 6.7578125 7.6171875 C8 10 8 10 8 12 C4.3392481 10.77974937 4.07660559 9.873509 2.3125 6.5625 C1.87550781 5.75941406 1.43851562 4.95632812 0.98828125 4.12890625 C0 2 0 2 0 0 Z " fill="#F2F2F2" transform="translate(108,155)"/>
<path d="M0 0 C0.66 0 1.32 0 2 0 C2.83848804 1.45537568 3.67063934 2.91440373 4.5 4.375 C5.19609375 5.59316406 5.19609375 5.59316406 5.90625 6.8359375 C7 9 7 9 7 11 C6.34 11 5.68 11 5 11 C4.16151196 9.54462432 3.32936066 8.08559627 2.5 6.625 C1.80390625 5.40683594 1.80390625 5.40683594 1.09375 4.1640625 C0 2 0 2 0 0 Z " fill="#F3F3F3" transform="translate(144,217)"/>
<path d="M0 0 C1.875 0.1875 1.875 0.1875 4 1 C5.78284814 4.29826907 6 6.1774751 6 10 C3.25722422 6.80009492 1.3697164 3.99500618 0 0 Z " fill="#EBEBEB" transform="translate(138,208)"/>
<path d="M0 0 C0 3.75366417 -1.11420063 5.78715662 -3 9 C-3.99 9.33 -4.98 9.66 -6 10 C-2.62068966 1.31034483 -2.62068966 1.31034483 0 0 Z " fill="#F0F0F0" transform="translate(252,166)"/>
<path d="M0 0 C0.99 0.33 1.98 0.66 3 1 C2.34 1 1.68 1 1 1 C0.5978125 2.11375 0.5978125 2.11375 0.1875 3.25 C-0.94229421 5.86636554 -2.20893202 7.80187111 -4 10 C-4.66 9.67 -5.32 9.34 -6 9 C-4.02 6.03 -2.04 3.06 0 0 Z " fill="#F8F8F8" transform="translate(80,112)"/>
<path d="M0 0 C0.66 0 1.32 0 2 0 C0.7508258 3.45925163 -0.67527795 6.14693203 -3 9 C-3.33 8.01 -3.66 7.02 -4 6 C-2.1875 2.8125 -2.1875 2.8125 0 0 Z " fill="#E5E5E5" transform="translate(154,176)"/>
<path d="M0 0 C0.66 0 1.32 0 2 0 C0.7508258 3.45925163 -0.67527795 6.14693203 -3 9 C-3.33 8.01 -3.66 7.02 -4 6 C-2.1875 2.8125 -2.1875 2.8125 0 0 Z " fill="#EAEAEA" transform="translate(45,172)"/>
<path d="M0 0 C0.33 0 0.66 0 1 0 C1.25 2.25 1.25 2.25 1 5 C-1 7.3125 -1 7.3125 -3 9 C-3.33 8.34 -3.66 7.68 -4 7 C-3.22265625 5.2734375 -3.22265625 5.2734375 -2.0625 3.375 C-1.381875 2.26125 -0.70125 1.1475 0 0 Z " fill="#E2E2E2" transform="translate(266,139)"/>
<path d="M0 0 C3 1 3 1 4.75 3.375 C6 6 6 6 5 9 C0.57142857 3.85714286 0.57142857 3.85714286 0 0 Z " fill="#E8E8E8" transform="translate(230,58)"/>
<path d="M0 0 C0.66 0 1.32 0 2 0 C0.7508258 3.45925163 -0.67527795 6.14693203 -3 9 C-3.33 8.01 -3.66 7.02 -4 6 C-2.1875 2.8125 -2.1875 2.8125 0 0 Z " fill="#EBEBEB" transform="translate(119,44)"/>
<path d="M0 0 C0.99 0.33 1.98 0.66 3 1 C4.1875 4.0625 4.1875 4.0625 5 7 C4.01 7.495 4.01 7.495 3 8 C0 2.25 0 2.25 0 0 Z " fill="#E9E9E9" transform="translate(206,16)"/>
</svg>
