<svg width="459" height="459" viewBox="0 0 459 459" fill="none" xmlns="http://www.w3.org/2000/svg">
<path d="M229.5 459C102.643 459 0 356.205 0 229.5C0 102.643 102.795 0 229.5 0C356.357 0 459 102.795 459 229.5C459.152 356.357 356.357 459 229.5 459Z" fill="#F4DA92"/>
<mask id="mask0_32_735" style="mask-type:alpha" maskUnits="userSpaceOnUse" x="0" y="0" width="459" height="459">
<path d="M229.5 459C102.643 459 0 356.205 0 229.5C0 102.643 102.795 0 229.5 0C356.357 0 459 102.795 459 229.5C459.152 356.357 356.357 459 229.5 459Z" fill="#F7C0B5"/>
</mask>
<g mask="url(#mask0_32_735)">
<path d="M357.714 422.745C356.643 423.51 355.419 424.275 354.348 425.04C353.124 425.805 352.053 426.57 350.829 427.182C349.758 427.794 348.84 428.406 347.769 429.018C347.616 429.171 347.463 429.171 347.31 429.324C343.791 431.466 340.119 433.455 336.447 435.291C335.376 435.903 334.152 436.515 333.081 436.974C333.081 436.974 332.928 437.127 332.775 437.127C331.551 437.739 330.327 438.351 329.103 438.963C326.655 440.187 324.054 441.258 321.606 442.329C320.382 442.941 319.005 443.4 317.781 443.859C316.557 444.318 315.18 444.93 313.956 445.389C312.732 445.848 311.355 446.46 310.131 446.919C310.131 446.919 310.131 446.919 309.978 446.919C308.754 447.378 307.377 447.837 306.153 448.296C303.399 449.214 300.492 450.132 297.738 451.05C296.82 451.356 295.749 451.662 294.831 451.968C291.924 452.886 289.017 453.651 286.11 454.263C285.039 454.569 283.968 454.722 282.744 455.028C279.99 455.64 277.083 456.252 274.329 456.864C273.717 457.017 273.258 457.017 272.646 457.17C271.728 457.323 270.657 457.476 269.739 457.629C268.362 457.782 267.138 458.088 265.761 458.241C265.149 458.394 264.537 458.394 263.925 458.547C263.16 458.7 262.242 458.853 261.324 458.853C258.876 459.159 256.275 459.465 253.827 459.771C253.062 459.924 252.144 459.924 251.379 460.077H251.226C250.155 460.23 249.084 460.23 248.013 460.383C246.942 460.536 245.871 460.536 244.8 460.536C244.188 460.536 243.423 460.689 242.811 460.689C241.587 460.689 240.516 460.842 239.445 460.842C237.915 460.842 236.538 460.995 235.008 460.995C233.478 460.995 232.101 460.995 230.571 460.995C229.5 460.995 228.429 460.995 227.358 460.995C162.945 460.077 104.805 432.69 63.4949 389.238C63.4949 389.238 63.4949 389.085 63.3419 389.085C68.0849 379.752 85.6798 362.922 104.04 348.999C127.296 331.404 160.191 320.541 160.191 320.541C160.191 320.541 181.764 317.022 261.783 333.699C322.83 346.551 348.84 398.724 357.714 422.745Z" fill="#FEE4BF"/>
<path d="M278.766 376.08C275.553 391.839 254.745 401.172 219.708 387.096C176.715 369.654 160.191 320.541 160.191 320.541C157.896 285.351 152.541 255.21 152.541 255.21C202.266 250.926 261.018 309.066 261.018 309.066L267.75 337.83C268.362 340.278 269.586 342.42 271.422 343.95C274.635 349.458 280.908 365.982 278.766 376.08Z" fill="#FEE4BF"/>
<path d="M271.422 344.103C242.199 342.573 220.626 338.289 197.523 296.826C217.107 314.115 240.21 320.694 264.537 323.754L267.75 337.83C268.362 340.431 269.586 342.573 271.422 344.103Z" fill="#EFBD9C"/>
<path d="M331.857 159.738C334.611 172.59 335.988 182.994 328.491 217.266C320.994 251.538 335.376 285.81 299.268 317.175C274.941 338.289 232.407 342.267 198.441 319.164C186.966 311.361 176.409 300.498 167.841 286.269C161.109 275.1 153.306 264.543 144.585 254.904C132.498 241.746 117.963 215.277 125.154 168.459C136.782 92.2648 212.211 83.5438 256.734 91.9588C301.257 100.374 324.36 125.772 331.857 159.738Z" fill="#FEE4BF"/>
<path d="M185.436 219.561C185.436 219.561 180.693 196.611 158.355 199.365C139.077 201.813 132.345 248.019 176.103 260.871" fill="#FEE4BF"/>
<path d="M174.726 239.91C174.726 239.91 169.218 236.391 169.83 230.271C170.748 223.08 169.83 218.643 166.464 217.266C158.049 213.747 156.366 223.539 156.672 224.763" stroke="#423232" stroke-width="4.82119" stroke-miterlimit="10" stroke-linecap="round" stroke-linejoin="round"/>
<path d="M291.465 254.751C291.465 254.751 297.279 255.057 302.787 248.478C305.847 244.806 308.448 240.216 306.765 238.839C305.082 237.309 277.389 241.593 275.553 245.265C273.717 248.937 284.427 254.751 291.465 254.751Z" fill="#EFBD9C"/>
<path d="M296.055 203.343C296.055 203.343 296.361 217.878 305.694 234.096C309.825 241.287 303.552 253.068 289.935 255.057" stroke="#423232" stroke-width="4.82119" stroke-miterlimit="10" stroke-linecap="round" stroke-linejoin="round"/>
<path d="M320.076 288.258C320.076 288.411 320.076 288.411 320.076 288.258C319.923 288.411 319.923 288.411 320.076 288.258C316.251 298.203 309.978 307.689 299.268 317.022C274.941 338.136 232.407 342.114 198.441 319.011C194.616 316.41 190.944 313.503 187.425 310.29C184.977 307.23 182.835 304.017 180.999 300.651C169.983 279.996 174.726 260.718 174.726 260.718C174.726 260.718 180.999 260.871 188.496 275.559C194.769 287.799 218.943 287.34 228.888 264.39C239.904 238.839 267.444 250.008 273.717 252.456C279.99 254.904 289.782 254.904 289.782 254.904C314.568 254.598 307.071 271.275 309.672 280.455C313.497 293.001 320.076 288.258 320.076 288.258Z" fill="#423232"/>
<path d="M373.479 394.248C351.753 366.249 318.093 354.621 299.58 347.736C298.05 340.086 295.143 331.671 290.553 323.562C283.515 327.846 275.406 331.059 266.991 332.742L268.215 337.791C268.827 340.239 271.887 351.561 267.144 366.096C263.166 378.336 247.101 383.844 219.867 371.451C166.776 347.43 160.656 320.349 160.656 320.349C159.738 305.661 158.208 291.891 156.831 280.722C140.307 284.394 121.182 291.891 110.778 307.65C97.926 326.928 93.183 346.512 94.407 362.118C72.069 376.347 37.4911 397.92 26.1691 436.476C11.4811 486.66 13.9291 517.413 13.9291 517.413H409.281C408.822 517.566 403.008 432.345 373.479 394.248Z" fill="#6060D8"/>
<path d="M137.094 344.064C137.094 344.064 146.427 380.325 187.278 405.417" stroke="#423232" stroke-width="4.82119" stroke-miterlimit="10" stroke-linecap="round" stroke-linejoin="round"/>
<path d="M299.427 347.736C299.427 347.736 310.29 394.707 286.575 416.28" stroke="#423232" stroke-width="4.82119" stroke-miterlimit="10" stroke-linecap="round" stroke-linejoin="round"/>
<path d="M225.681 409.089C225.681 409.089 217.725 432.345 219.867 448.41" stroke="#423232" stroke-width="4.82119" stroke-miterlimit="10" stroke-linecap="round" stroke-linejoin="round"/>
<path d="M274.488 407.712C274.488 407.712 280.455 420.717 284.739 441.372" stroke="#423232" stroke-width="4.82119" stroke-miterlimit="10" stroke-linecap="round" stroke-linejoin="round"/>
<path d="M94.1011 362.271C94.1011 362.271 106.647 413.373 181.311 428.367" stroke="#423232" stroke-width="4.82119" stroke-miterlimit="10" stroke-linecap="round" stroke-linejoin="round"/>
<path d="M221.244 451.929L214.512 451.317C212.064 451.011 210.228 448.716 210.687 446.268L212.982 434.793C213.594 431.58 216.654 429.285 219.867 429.744C223.08 430.05 225.681 432.804 225.681 436.17L225.834 447.951C225.834 450.246 223.692 452.235 221.244 451.929Z" fill="white"/>
<path d="M291.471 444.891L285.045 447.186C282.597 448.104 279.996 446.574 279.537 444.126L276.783 432.804C276.018 429.591 277.701 426.378 280.914 425.154C283.974 424.083 287.493 425.46 288.87 428.367L293.919 438.924C294.99 441.219 293.919 443.973 291.471 444.891Z" fill="white"/>
<path d="M358.944 441.372C358.944 441.372 367.512 489.414 364.146 517.566" stroke="#544D4D" stroke-width="4.82119" stroke-miterlimit="10" stroke-linecap="round" stroke-linejoin="round"/>
<path d="M241.484 218.71C237.812 218.557 235.058 215.497 235.364 211.825L235.517 207.541C235.67 203.869 238.73 201.115 242.402 201.421C246.074 201.574 248.828 204.634 248.522 208.306L248.369 212.59C248.216 216.109 245.156 218.863 241.484 218.71Z" fill="#423232"/>
<path d="M305.897 221.004C302.531 220.851 299.93 217.944 300.083 214.578L300.236 210.6C300.389 207.234 303.296 204.633 306.662 204.786C310.028 204.939 312.629 207.846 312.476 211.212L312.323 215.19C312.17 218.556 309.263 221.157 305.897 221.004Z" fill="#423232"/>
<path d="M256.325 209.836C256.325 209.836 252.347 204.175 245.462 203.104C239.801 202.186 233.528 204.94 232.61 208.153" stroke="#423232" stroke-width="4.82119" stroke-miterlimit="10" stroke-linecap="round" stroke-linejoin="round"/>
<path d="M301.46 211.213C301.46 211.213 301.46 206.317 308.498 206.317C314.312 206.317 316.76 211.672 316.76 211.672" stroke="#423232" stroke-width="4.82119" stroke-miterlimit="10" stroke-linecap="round" stroke-linejoin="round"/>
<path d="M262.598 185.202C265.811 186.273 269.024 183.366 268.412 179.847C268.106 178.011 267.341 176.175 265.811 174.798C261.221 170.667 242.249 166.995 230.774 172.35C220.676 177.246 247.91 180.306 262.598 185.202Z" fill="#423232"/>
<path d="M308.345 187.651C305.744 188.569 302.99 185.815 303.449 182.602C303.602 180.919 304.214 179.236 305.438 178.012C309.11 174.34 321.656 171.433 329.612 177.094C336.497 181.837 320.279 183.214 308.345 187.651Z" fill="#423232"/>
<path d="M284.53 274.559C284.691 279.862 276.816 293.361 261.549 287.094C246.925 281.148 242.586 253.185 263.477 266.523C274.405 273.434 280.994 274.559 284.53 274.559Z" fill="white"/>
<path d="M287.583 273.916C287.583 273.916 280.833 277.612 263.477 266.523C242.746 253.185 246.924 281.148 261.549 287.094C276.816 293.361 284.69 279.701 284.53 274.559" stroke="#423232" stroke-width="4.82119" stroke-miterlimit="10" stroke-linecap="round" stroke-linejoin="round"/>
<path d="M249.335 270.541C249.335 270.541 260.263 277.773 263.477 277.13C266.852 276.648 266.37 281.308 281.637 281.79" stroke="#423232" stroke-width="4.82119" stroke-miterlimit="10" stroke-linecap="round" stroke-linejoin="round"/>
<path d="M331.782 204.276C335.913 181.02 334.689 171.84 332.241 160.977C331.476 157.611 330.558 154.398 329.487 151.185C319.848 146.901 311.892 158.835 298.734 156.999C263.697 152.256 236.922 137.262 207.393 143.688C188.88 147.666 185.82 164.343 191.175 195.096C192.705 203.511 192.705 211.62 185.514 220.035C184.29 215.751 178.323 198.309 158.739 200.757C140.226 203.052 133.188 245.892 171.438 260.58C171.132 268.995 163.329 284.601 157.056 288.12C157.056 288.12 155.985 276.951 143.745 262.263C131.505 247.575 107.025 209.478 123.549 153.786C140.073 98.0943 214.89 69.0243 284.505 97.3293C296.439 102.225 306.231 109.11 314.034 116.301C332.394 133.131 342.186 157.611 339.279 182.244C338.667 190.506 336.372 198.462 331.782 204.276Z" fill="#423232"/>
<path d="M175.263 107.886C175.263 107.886 179.7 58.7731 153.078 52.8061C126.456 46.8391 135.636 75.9091 143.898 94.1161C143.898 94.1161 112.074 65.6581 98.1513 84.9361C84.8403 103.449 118.194 123.645 118.194 123.645C118.194 123.645 68.7753 127.623 79.1793 155.775C89.7363 183.927 143.898 147.207 143.898 147.207C143.898 147.207 175.11 118.443 175.263 107.886Z" fill="#423232"/>
<path d="M168.474 224.601C168.474 224.601 156.234 222.765 157.152 239.901C157.611 248.622 157.611 253.365 157.458 255.813C157.305 257.496 158.376 259.026 159.906 259.638C161.742 260.403 163.731 259.638 164.649 257.802C166.026 255.354 167.556 251.988 167.556 249.234C167.556 244.644 172.452 240.513 172.452 240.513C172.452 240.513 168.015 236.688 168.474 224.601Z" fill="white"/>
<path d="M205.5 519.586C204.276 518.209 156.234 436.047 163.425 405.141C168.321 383.874 161.895 359.394 156.234 337.821C153.939 328.947 151.797 320.685 150.573 313.341C148.431 300.642 149.961 288.555 155.163 277.386C160.824 264.84 159.906 253.977 159.906 253.824L162.966 253.518C162.966 253.977 163.884 265.452 157.917 278.61C153.021 289.167 151.644 300.795 153.633 312.882C154.857 320.073 156.999 328.335 159.294 337.209C165.108 359.088 171.534 384.027 166.485 406.059C159.753 435.435 207.642 517.597 207.948 517.903L205.5 519.586Z" fill="white"/>
<path d="M157.611 248.775C157.764 252.141 157.611 254.436 157.611 255.813C157.458 257.496 158.529 259.026 160.059 259.638C161.895 260.403 163.884 259.638 164.802 257.802C166.179 255.354 167.709 251.988 167.709 249.234C167.709 249.081 167.709 248.775 167.709 248.622C164.496 249.846 160.824 250.764 157.611 248.775Z" fill="#E5E5E5"/>
<path d="M301.584 350.52C300.513 357.558 300.36 368.727 300.054 381.732C299.595 406.824 284.754 504.591 277.563 520.044L274.809 518.82C281.694 503.826 296.535 406.518 296.994 381.732C297.3 368.727 297.453 357.405 298.524 350.061C300.819 334.608 299.136 322.98 298.218 318.084C298.677 317.625 299.136 317.319 299.595 316.86C300.054 316.554 300.36 316.095 300.819 315.789C301.737 319.767 304.338 332.466 301.584 350.52Z" fill="white"/>
</g>
</svg>
